<?xml version="1.0" encoding="UTF-8" standalone="no"?>
<svg width="135px" height="34px" viewBox="0 0 135 34" version="1.1" xmlns="http://www.w3.org/2000/svg" xmlns:xlink="http://www.w3.org/1999/xlink">
    <!-- Generator: Sketch 3.6.1 (26313) - http://www.bohemiancoding.com/sketch -->
    <title>ING_Primary_Logo_RGB</title>
    <desc>Created with Sketch.</desc>
    <defs></defs>
    <g id="Page-1" stroke="none" stroke-width="1" fill="none" fill-rule="evenodd">
        <g id="Bouwstenen-mobiel" transform="translate(-30.000000, -24.000000)">
            <g id="Logo-+-pancake-+-Rectangle-691-+-Rectangle-543-+-Stijlvan-Saxion">
                <g id="Logo-+-pancake-+-Rectangle-691">
                    <g id="Logo-+-pancake">
                        <g id="ING_Primary_Logo_RGB" transform="translate(30.000000, 24.000000)">
                            <path d="M0,33.2717315 L0,32.2791702 C2.17052477,32.2791702 3.70794023,32.0989631 3.70794023,28.9614638 L3.70794023,12.4810562 C3.70794023,9.23306155 2.53196226,9.15244262 0,9.15244262 L0,8.20398454 L12.7248796,8.20398454 L12.7248796,9.15244262 C10.11835,9.15244262 9.0345125,9.23306155 9.0345125,12.4810562 L9.0345125,28.9614638 C9.0345125,32.0989631 10.3928715,32.2791702 12.7248796,32.2791702 L12.7248796,33.2717315 L0,33.2717315 L0,33.2717315 Z M43.7377364,14.240446 L43.7377364,33.4576293 L42.2487659,33.4576293 L23.0018631,13.6078244 C23.0921038,14.1503425 23.0921038,14.6013343 23.0921038,15.1419554 L23.0921038,27.2333732 C23.0921038,30.9271432 23.0921038,32.2791702 26.4799272,32.2791702 L26.4799272,33.2717315 L17.4454147,33.2717315 L17.4454147,32.2791702 C20.8693344,32.2791702 20.8693344,30.6558842 20.8693344,27.2333732 L20.8693344,13.4484835 C20.8693344,11.4002883 20.8693344,9.15244262 17.2649334,9.15244262 L17.2649334,8.20398454 L25.7869741,8.20398454 L41.6156566,24.4330507 C41.525416,23.9830074 41.525416,23.7136453 41.525416,23.0810237 L41.525416,14.240446 C41.525416,10.677089 41.6156566,9.15244262 38.2183341,9.15244262 L38.2183341,8.20398454 L47.2509468,8.20398454 L47.2509468,9.15244262 C43.9158429,9.15244262 43.7377364,10.5893566 43.7377364,14.240446 L43.7377364,14.240446 Z M74.9875937,24.7963102 L74.9875937,31.1965053 C71.3827177,33.0033179 67.9939444,33.90625 64.6061209,33.90625 C55.2087461,33.90625 49.5611071,28.4066158 49.5611071,21.4141087 C49.5611071,13.878135 56.0237615,7.65625 64.2442085,7.65625 C66.2779474,7.65625 67.814888,8.01903521 69.4254458,8.54969751 C70.580051,8.91058581 71.2924771,9.32458776 72.0153521,9.32458776 C72.6498862,9.32458776 72.826093,8.27132506 72.9168085,7.65625 L73.8130405,7.65625 L74.628056,16.3147238 L73.5418437,16.3147238 C73.0977648,14.6013343 72.2846491,13.1961936 71.2003367,12.2107457 C69.5133117,10.4964077 67.1813037,9.5930014 64.5163552,9.5930014 C58.8682413,9.5930014 55.5725583,14.0602389 55.5725583,20.783384 C55.5725583,27.4135802 59.593966,31.920653 64.9651837,31.920653 C66.5472445,31.920653 67.9939444,31.5597647 69.7645606,30.7464619 L69.7645606,24.1617917 C69.7645606,22.0453075 69.4254458,21.2315305 66.3681881,21.2315305 L66.3681881,20.2413402 L77.7142857,20.2413402 L77.7142857,21.2315305 C74.897353,21.2315305 74.9875937,22.1349368 74.9875937,24.7963102 L74.9875937,24.7963102 Z" id="Fill-2" fill="#000066"></path>
                            <path d="M97.3210577,12.4991072 C97.1446782,12.1248942 96.6911984,12.4991072 96.2405557,12.312246 C96.2405557,12.4991072 96.2405557,12.686459 96.5138731,12.8718489 C96.781516,12.5932736 97.2312129,12.4991072 97.3210577,12.4991072 L97.3210577,12.4991072 Z M98.040289,7.59755426 C98.040289,7.41461657 97.8572893,7.22824574 97.5915379,7.04138445 L95.6106964,7.04138445 L95.4343169,7.04138445 C95.4343169,7.41461657 95.7014869,7.59755426 95.9733857,7.59755426 C95.9733857,7.98108582 96.2405557,8.05072966 96.3332378,8.14685778 C96.6056094,8.33862356 96.6911984,8.33862356 96.9626242,8.14685778 C97.2312129,8.33862356 97.3210577,7.98108582 97.4132669,8.14685778 C97.4132669,8.71185568 97.4132669,8.96198496 97.3210577,9.41761261 C97.2312129,10.0728532 96.6911984,9.97868692 96.2405557,10.2592241 C96.2405557,10.5387803 95.9733857,11.0066692 96.2405557,11.2867159 C96.5138731,11.1003451 96.6911984,11.0066692 97.1446782,10.8183366 C97.1446782,10.5387803 97.4132669,10.2592241 97.7717003,10.0728532 C97.7717003,9.23271312 98.040289,8.43328033 98.040289,7.59755426 L98.040289,7.59755426 Z M102.090871,12.9591489 L102.090871,12.4991072 L101.190532,12.4991072 L101.104943,12.5932736 L102.090871,12.9591489 L102.090871,12.9591489 Z M96.781516,4.44003994 C96.6911984,3.53368914 95.7014869,3.44148462 95.2527358,3.07560924 L94.8928837,3.07560924 C94.1916214,3.34682785 94.0270635,4.09525389 93.9457303,4.7097872 C94.1916214,5.54845597 94.7146127,4.98885301 95.0711547,5.54845597 C95.4343169,5.26742836 96.3332378,4.61365909 96.781516,4.44003994 L96.781516,4.44003994 Z M98.7614118,5.45625145 C98.5840865,5.26742836 98.040289,5.54845597 97.7717003,5.64262228 C97.4132669,5.73531725 97.1446782,6.01438306 97.1446782,6.29492021 L98.1315524,6.29492021 C98.2232887,6.01438306 98.5840865,5.64262228 98.7614118,5.45625145 L98.7614118,5.45625145 Z M103.185086,7.41461657 C103.185086,7.41461657 103.362884,7.41461657 103.185086,7.32241205 L101.282268,7.04138445 C101.104943,7.32241205 100.652408,7.32241205 100.652408,7.59755426 L100.472246,7.59755426 C100.652408,8.33862356 100.652408,9.14001815 100.652408,9.97868692 C101.010842,10.0728532 101.373531,10.2592241 101.373531,10.8183366 C101.728182,11.0066692 102.090871,11.1003451 102.436064,11.3774491 C102.601095,11.2867159 102.681482,11.0066692 102.765653,10.7266225 C102.436064,10.2592241 101.640228,10.5387803 101.640228,9.69962111 L101.104943,9.51128848 C101.104943,8.96198496 101.104943,8.43328033 101.010842,8.05072966 L101.104943,7.98108582 C101.104943,8.05072966 101.190532,8.14685778 101.373531,8.33862356 C101.728182,8.33862356 102.090871,8.43328033 102.436064,8.14685778 C102.601095,8.05072966 102.601095,7.59755426 102.765653,7.59755426 C102.928792,7.59755426 103.095714,7.59755426 103.185086,7.41461657 L103.185086,7.41461657 Z M101.817554,6.29492021 C101.817554,6.01438306 101.728182,6.01438306 101.640228,6.01438306 C101.190532,6.01438306 101.190532,5.26742836 100.829734,5.45625145 C100.652408,5.45625145 100.472246,5.26742836 100.204603,5.45625145 C100.204603,5.54845597 100.204603,5.54845597 100.380983,5.54845597 C100.829734,5.54845597 100.652408,6.19977299 101.010842,6.29492021 L101.817554,6.29492021 L101.817554,6.29492021 Z M104.805603,5.73531725 C104.982928,5.26742836 104.982928,4.44003994 104.623549,4.00059713 C104.444332,3.62785546 103.995108,3.44148462 103.54683,3.07560924 L102.928792,3.44148462 C102.601095,3.62785546 102.436064,4.00059713 102.436064,4.44003994 C103.01249,4.7097872 103.635729,5.45625145 103.903372,6.01438306 L104.174798,6.01438306 C104.444332,5.73531725 104.623549,6.01438306 104.805603,5.73531725 L104.805603,5.73531725 Z M86.3670848,31.4814673 C86.2753485,31.4814673 86.0048683,31.2009302 85.7362797,31.2009302 C85.4804584,31.7600427 85.7362797,32.1357271 85.7362797,32.7860632 C85.7362797,33.0685621 85.6450163,33.3471375 85.6450163,33.3471375 C85.4804584,33.3471375 85.15749,32.9743958 85.0761568,32.6011637 L85.0761568,31.1097066 L85.8280159,30.1042849 C86.3670848,30.4539755 86.5434643,31.0160307 86.3670848,31.4814673 L86.3670848,31.4814673 Z M88.6666389,30.4539755 C88.6666389,30.8252458 88.5786855,31.2009302 88.4032517,31.4814673 C88.3105697,31.1097066 88.0561671,30.6462317 87.6230205,30.6462317 C87.2674243,31.3868106 87.1752151,31.6683286 87.5331757,32.7860632 C87.2674243,33.0685621 87.0834788,33.1612571 86.7269368,33.3471375 C86.5434643,32.9743958 86.5434643,32.3220979 86.5434643,31.9488658 C86.5434643,31.294606 86.6356734,30.6462317 86.8148902,30.1042849 C87.0834788,29.8178624 87.2674243,29.350464 87.5331757,29.1503605 L88.4883678,29.1503605 C88.0561671,29.1503605 88.0561671,29.5427202 88.0561671,29.8178624 C88.3105697,29.9105574 88.6666389,30.0066855 88.6666389,30.4539755 L88.6666389,30.4539755 Z M91.8183,31.0160307 C91.8183,31.7600427 90.6498447,32.7860632 90.6498447,32.7860632 C90.6498447,32.3220979 90.9193791,31.7600427 90.9193791,31.2009302 C90.9193791,31.2009302 90.5576355,30.8252458 90.1973106,30.8252458 C89.9296676,31.0160307 89.9296676,31.2009302 89.8402957,31.4814673 C89.5693427,32.0410703 89.0293281,32.6011637 88.9409019,33.1612571 C88.8510571,33.1612571 88.8510571,33.0685621 88.8510571,33.0685621 C88.8510571,32.1357271 88.9409019,30.5481418 89.479025,29.9105574 C89.9296676,29.350464 90.2914112,29.350464 90.8281157,29.2597308 L91.279704,29.350464 L90.9193791,29.9105574 C91.279704,30.1042849 91.8183,30.4539755 91.8183,31.0160307 L91.8183,31.0160307 Z M94.2701174,30.1042849 L94.0270635,31.0160307 L93.4402351,29.350464 C92.7181666,28.6863952 91.9086176,28.5922289 91.4584479,28.217035 C91.0995415,28.1267923 91.0995415,28.4038963 90.9193791,28.217035 C90.9193791,28.0360591 90.9193791,27.7515984 91.1912778,27.4744944 L91.7284552,27.4744944 L92.2684697,27.7515984 C92.5380041,28.0360591 93.1688092,28.0360591 93.1688092,28.5922289 C93.1688092,28.6863952 93.0761272,28.7790902 93.3503903,29.1503605 L94.1916214,29.350464 L94.2701174,30.1042849 L94.2701174,30.1042849 Z M95.6106964,28.7790902 L94.9832014,29.350464 C94.8011474,29.1503605 94.9832014,28.6863952 94.7146127,28.4038963 C94.7146127,28.217035 94.8928837,28.1267923 94.8011474,28.0360591 C94.7146127,27.8477265 93.6979478,27.4744944 93.6979478,27.4744944 C93.3503903,27.1939572 92.8997477,26.909006 92.5380041,26.5411688 C92.1800435,26.4470025 91.9086176,26.6338638 91.4584479,26.7275397 L91.4584479,26.5411688 C91.6386104,26.1664654 91.6386104,25.6971051 92.1800435,25.6971051 C92.4481593,25.6971051 92.8099029,25.6971051 92.9862824,25.9776423 C93.3503903,25.9776423 93.5305528,26.3528362 93.7811725,26.4470025 C94.1916214,26.909006 94.5349231,27.1012622 94.8011474,27.2841999 C94.8011474,27.5647371 94.8928837,27.7515984 95.0711547,27.8477265 C95.6106964,27.8477265 95.4343169,28.4038963 95.6106964,28.7790902 L95.6106964,28.7790902 Z M96.0632305,25.8869091 C96.0632305,26.1664654 95.9733857,27.2841999 95.9733857,27.2841999 C95.7936961,26.6338638 95.3444721,25.9776423 94.8011474,25.9776423 C94.5349231,25.6971051 94.2701174,25.4195107 94.1916214,25.1409353 C93.9457303,24.8599077 93.6979478,25.1409353 93.3503903,24.8599077 C92.9862824,24.8599077 92.5380041,24.8599077 92.1800435,25.1409353 L92.1800435,24.8599077 L92.8099029,24.1114817 C93.4402351,24.2061384 94.1916214,24.1114817 94.3523963,24.5788801 C94.8011474,24.8599077 95.2527358,25.1409353 95.3444721,25.329268 L95.3444721,25.606372 C95.5213245,25.6971051 95.8835409,25.7927428 96.0632305,25.8869091 L96.0632305,25.8869091 Z M95.6106964,21.1736888 L95.2527358,22.5366481 C94.8011474,22.8995808 94.1916214,22.7215476 93.6979478,22.7215476 C94.3523963,22.5366481 94.8928837,21.7372153 95.2527358,21.1736888 C95.3444721,21.0814842 95.4343169,21.1736888 95.6106964,21.1736888 L95.6106964,21.1736888 Z M94.3523963,20.0574255 C94.3523963,20.4301672 94.1916214,20.8956039 93.7811725,21.3620214 C93.6979478,21.4542259 93.4402351,21.643049 93.4402351,21.643049 C93.4402351,21.0814842 93.6979478,20.6155572 93.6979478,20.1471778 C93.9457303,20.0574255 94.1916214,19.8690929 94.3523963,20.0574255 L94.3523963,20.0574255 Z M93.3503903,18.6517971 C92.8997477,19.1216478 92.4481593,19.3065473 92.2684697,19.8690929 C92.2684697,19.5929698 92.1800435,19.3065473 92.0935088,19.1216478 C92.1800435,18.744492 92.4481593,18.560083 92.5380041,18.4737639 C92.8099029,18.560083 92.9862824,18.560083 93.3503903,18.6517971 L93.3503903,18.6517971 Z M99.8400223,25.6971051 C99.4806431,25.9776423 99.2120544,25.9776423 98.7614118,25.8869091 L98.2232887,25.1409353 L99.5737979,25.1409353 L99.8400223,25.6971051 L99.8400223,25.6971051 Z M98.040289,21.4542259 C97.7717003,22.0143193 97.505476,22.5366481 96.9626242,22.7215476 C96.6911984,22.7215476 96.2405557,22.8995808 95.7014869,22.7215476 C95.9733857,22.5366481 96.2405557,22.4522908 96.6056094,22.2021615 L97.3210577,21.4542259 L98.040289,21.4542259 L98.040289,21.4542259 Z M106.244065,31.2009302 L105.973585,31.4814673 C105.703578,31.2009302 105.882795,30.4539755 105.433571,30.3598092 C104.982928,30.3598092 104.623549,29.9105574 104.444332,29.8178624 L104.805603,29.6329629 C104.805603,29.6329629 104.982928,29.5427202 105.164509,29.6329629 C105.343726,29.8178624 105.52578,29.9105574 105.52578,30.1042849 C105.703578,30.3598092 105.973585,30.1042849 106.157058,30.3598092 C106.244065,30.6462317 106.335329,31.0160307 106.244065,31.2009302 L106.244065,31.2009302 Z M99.6598598,22.2021615 C99.5737979,22.7215476 99.3023721,22.8995808 98.8512566,23.5518787 C98.5840865,23.7416827 98.040289,23.8324159 97.505476,24.1114817 C97.5915379,23.8324159 97.8572893,23.7416827 98.040289,23.4591837 C98.2232887,23.1801179 98.5840865,22.7215476 98.671567,22.4522908 C99.1212639,22.2021615 99.3023721,22.2021615 99.6598598,22.2021615 L99.6598598,22.2021615 Z M95.3444721,18.9362578 C94.8011474,18.744492 94.1916214,18.1888127 93.9457303,17.7699688 C93.7811725,17.3986984 93.6979478,16.9283573 93.6979478,16.6502724 C94.0270635,16.6502724 94.2701174,16.9283573 94.3523963,17.1161995 L94.3523963,17.2103658 C94.8011474,17.7699688 95.2527358,18.1888127 95.3444721,18.9362578 L95.3444721,18.9362578 Z M102.271033,25.606372 L102.090871,25.606372 C102.004336,25.606372 101.373531,25.329268 101.190532,25.1409353 C101.104943,24.8599077 101.104943,24.5788801 101.104943,24.5788801 L101.817554,24.5788801 L102.271033,25.606372 L102.271033,25.606372 Z M109.360734,29.9105574 C109.269471,30.1042849 109.085525,30.6462317 108.998991,31.0160307 C108.817882,30.4539755 108.638666,29.6329629 108.008806,29.6329629 C107.918489,29.2597308 107.828644,29.1503605 107.470683,28.8747279 L106.782188,28.7790902 C106.872033,29.1503605 107.378947,29.1503605 107.033754,29.6329629 C107.378947,29.9105574 107.648954,29.9105574 107.828644,30.3598092 C108.008806,30.6462317 107.828644,31.0160307 107.918489,31.2009302 L107.378947,31.4814673 C107.378947,31.0160307 107.470683,30.1042849 106.872033,29.9105574 C106.335329,30.1042849 106.244065,29.350464 105.882795,29.1503605 C105.703578,29.1503605 105.703578,28.6863952 105.433571,28.8747279 C104.982928,29.1503605 104.444332,28.8747279 103.995108,29.1503605 L104.444332,28.4038963 C104.805603,28.1267923 105.164509,28.217035 105.52578,28.1267923 L106.244065,28.0360591 C106.959514,28.0360591 107.560528,28.4038963 108.280232,28.6863952 C108.638666,28.8747279 108.817882,29.1503605 108.817882,29.5427202 C108.998991,29.6329629 109.360734,29.6329629 109.360734,29.9105574 L109.360734,29.9105574 Z M96.5138731,17.4928647 L96.2405557,18.6517971 C95.9733857,18.0941559 95.7014869,17.5835979 95.6106964,16.9283573 L96.5138731,17.4928647 L96.5138731,17.4928647 Z M98.2232887,20.1471778 C97.683747,19.5929698 97.2312129,19.1216478 97.2312129,18.560083 C97.505476,18.560083 97.7717003,18.560083 98.040289,18.744492 C98.040289,19.2123809 98.2232887,19.5929698 98.2232887,20.1471778 L98.2232887,20.1471778 Z M108.458503,28.0360591 C108.101488,27.7515984 107.560528,27.7515984 107.378947,27.2841999 C107.033754,27.1939572 106.782188,27.1939572 106.335329,27.1939572 C105.973585,27.2841999 105.52578,27.2841999 105.164509,27.2841999 C105.071354,27.2841999 105.164509,27.1939572 104.982928,27.1012622 C104.444332,27.2841999 103.903372,27.2841999 103.362884,27.8477265 L103.813527,26.7275397 C104.174798,26.7275397 104.444332,26.5411688 104.623549,26.5411688 C104.982928,26.4470025 105.253881,26.4470025 105.52578,26.4470025 L105.52578,26.5411688 C106.515491,26.5411688 107.648954,26.4470025 108.372914,27.2841999 L108.458503,28.0360591 L108.458503,28.0360591 Z M103.095714,22.7215476 C102.928792,22.8995808 102.436064,23.0864421 102.090871,23.0864421 C101.548965,22.6293431 101.190532,22.1075047 100.652408,21.3620214 L102.090871,21.643049 C102.353312,21.827458 102.850296,22.4522908 103.095714,22.7215476 L103.095714,22.7215476 Z M100.110975,18.6517971 C100.110975,19.3065473 100.02113,20.1471778 99.3922169,20.4301672 L99.2120544,19.4978226 C99.4806431,19.3065473 99.7501775,19.1216478 100.110975,18.6517971 L100.110975,18.6517971 Z M108.280232,26.1664654 C107.828644,26.1664654 107.470683,26.1664654 107.200676,25.6971051 C107.11225,25.6971051 106.959514,25.4195107 106.872033,25.606372 C106.426119,25.9776423 105.973585,25.329268 105.433571,25.4195107 C105.164509,25.6971051 104.897812,25.8869091 104.444332,25.9776423 L104.444332,25.8869091 C104.444332,25.606372 104.623549,25.329268 104.982928,25.1409353 C105.52578,25.329268 105.973585,24.1114817 106.515491,24.7652509 C106.782188,24.8599077 107.033754,24.8599077 107.200676,24.8599077 C107.828644,25.1409353 108.008806,25.6971051 108.280232,26.1664654 L108.280232,26.1664654 Z M110.348554,29.6329629 L110.259182,29.6329629 C110.077128,29.350464 109.986811,29.1503605 109.807121,29.1503605 C110.077128,28.1267923 109.539005,27.2841999 109.360734,26.4470025 L109.360734,26.1664654 C109.631214,26.6338638 110.348554,27.1012622 110.259182,27.5647371 C110.348554,28.4038963 110.348554,29.1503605 110.348554,29.6329629 L110.348554,29.6329629 Z M102.090871,20.1471778 C101.640228,19.8690929 100.829734,19.7759075 101.010842,19.2123809 C101.190532,18.744492 101.460539,18.6517971 101.640228,18.4737639 C101.728182,19.1216478 101.817554,19.5929698 102.090871,20.1471778 L102.090871,20.1471778 Z M92.8997477,8.14685778 L92.4481593,8.71185568 C92.5380041,9.60545479 92.1800435,10.2592241 92.1800435,11.1003451 L91.7284552,9.60545479 C91.8183,9.23271312 91.9086176,8.88449393 92.1800435,8.43328033 L92.8997477,8.14685778 L92.8997477,8.14685778 Z M106.244065,22.2021615 L105.973585,22.2021615 C104.982928,22.5366481 104.174798,21.9226053 103.362884,21.3620214 C103.813527,21.1736888 104.444332,21.0814842 104.982928,21.0814842 L105.253881,21.643049 C105.52578,21.7372153 105.973585,22.0143193 106.244065,22.2021615 L106.244065,22.2021615 Z M101.640228,14.6914168 C101.548965,15.2500389 101.373531,16.0896885 100.829734,16.4658634 C100.829734,16.0896885 100.652408,15.9038081 100.472246,15.6227805 C100.380983,15.6227805 100.472246,15.9038081 100.380983,15.9038081 C100.380983,16.0896885 100.204603,16.4658634 100.204603,16.8366432 C100.02113,16.9283573 99.6598598,17.1161995 99.3023721,16.9283573 L99.3023721,16.6502724 C99.2120544,16.4658634 99.2120544,16.0896885 99.2120544,15.9038081 L99.1212639,15.8116036 C98.8512566,15.9038081 98.8512566,16.0896885 98.8512566,16.2770403 C98.7614118,16.4658634 98.5840865,16.6502724 98.5840865,16.9283573 C98.2232887,16.9283573 98.040289,16.8366432 97.7717003,16.6502724 L97.7717003,15.8116036 C97.7717003,15.6227805 97.7717003,15.6227805 97.683747,15.6227805 L97.2312129,16.0896885 C96.8713608,15.8116036 96.781516,15.0621967 96.781516,14.5972505 C98.2232887,13.7585817 100.02113,14.0376475 101.104943,14.5035746 C101.282268,14.5972505 101.460539,14.5972505 101.640228,14.6914168 L101.640228,14.6914168 Z M104.174798,19.7759075 C103.813527,19.8690929 103.185086,20.0574255 103.01249,19.5929698 C102.51787,18.744492 102.765653,18.0019514 103.01249,17.3986984 C103.185086,17.9269126 103.274458,18.4737639 103.362884,18.9362578 C103.455566,19.3065473 103.995108,19.4978226 104.174798,19.7759075 L104.174798,19.7759075 Z M92.7181666,6.85599451 L92.0935088,7.04138445 L92.1800435,6.57398601 C92.3583145,6.29492021 92.4481593,6.01438306 92.7181666,5.73531725 L92.7181666,6.85599451 L92.7181666,6.85599451 Z M107.740218,21.1736888 C107.378947,21.1736888 106.782188,21.1736888 106.426119,20.8956039 C105.882795,20.6155572 105.703578,20.4301672 105.433571,20.1471778 C105.793423,19.8690929 106.244065,19.8690929 106.426119,19.7759075 C106.782188,20.1471778 107.11225,20.8014375 107.740218,21.1736888 L107.740218,21.1736888 Z M105.253881,18.560083 C104.805603,18.6517971 104.444332,18.1888127 103.995108,18.0019514 C103.813527,17.4928647 103.813527,16.9283573 103.635729,16.6502724 C103.995108,16.9283573 104.805603,16.9283573 104.623549,17.7699688 C104.623549,18.0019514 104.982928,18.1888127 105.253881,18.560083 L105.253881,18.560083 Z M112.611697,25.1409353 C112.611697,25.6971051 112.256101,26.1664654 112.166729,26.7275397 C112.166729,26.1664654 112.073574,25.6971051 111.721761,25.329268 C111.721761,25.1409353 111.979474,25.1409353 111.808296,24.8599077 C111.808296,24.8599077 111.309421,24.5788801 111.309421,24.2061384 C111.309421,23.8324159 111.638536,23.5518787 111.808296,23.2742843 C111.808296,23.1801179 112.166729,23.4591837 112.166729,24.021239 C112.166729,24.1114817 112.166729,24.3944711 112.073574,24.5788801 C111.979474,24.8599077 112.611697,24.8599077 112.611697,25.1409353 L112.611697,25.1409353 Z M114.680019,26.1664654 C114.680019,26.6338638 114.142842,27.1939572 113.960788,27.5647371 C114.142842,27.1012622 114.142842,26.1664654 113.960788,26.1664654 C113.77968,26.0737704 113.422665,26.1664654 113.422665,25.9776423 C113.422665,25.6971051 113.512037,25.329268 113.512037,25.1409353 C113.512037,24.7652509 113.240611,24.5788801 113.240611,24.3944711 C113.240611,23.8324159 113.873308,23.7416827 114.052997,23.3669792 C114.142842,23.7416827 114.142842,24.1114817 114.142842,24.5788801 C114.142842,24.7652509 114.414741,25.329268 114.142842,25.7927428 C114.142842,26.0737704 114.680019,25.8869091 114.680019,26.1664654 L114.680019,26.1664654 Z M107.378947,17.4928647 C106.872033,17.4928647 106.244065,17.7699688 105.973585,17.2103658 C106.157058,17.1161995 106.335329,16.8366432 106.515491,16.6502724 L107.378947,17.4928647 L107.378947,17.4928647 Z M109.901694,19.5929698 L109.44916,19.7759075 C108.458503,19.7759075 108.008806,19.4978226 107.560528,19.1216478 C107.918489,19.1216478 108.372914,18.6517971 108.372914,18.6517971 C108.817882,19.1216478 109.44916,19.4978226 109.901694,19.5929698 L109.901694,19.5929698 Z M106.244065,13.7585817 C105.164509,13.1440484 103.995108,12.686459 102.681482,12.5932736 C102.681482,12.8718489 102.681482,13.1440484 102.601095,13.2396861 C103.635729,13.7585817 104.623549,14.2240184 105.52578,15.0621967 L105.52578,15.9038081 C104.623549,14.9714635 103.635729,14.0376475 102.51787,13.7585817 C102.436064,13.9449526 102.090871,14.130833 102.004336,14.5035746 C101.373531,14.0376475 100.652408,13.5697587 99.9303399,13.4809873 C99.6598598,13.4809873 99.4806431,12.4991072 99.4806431,12.4991072 C99.9303399,12.312246 100.204603,12.0321993 100.380983,11.5638199 L100.739889,11.5638199 C101.010842,11.5638199 101.010842,11.3774491 101.010842,11.1003451 C101.010842,10.5387803 99.8400223,10.5387803 99.3023721,10.5387803 C98.671567,10.5387803 98.2232887,10.5387803 97.8572893,10.8183366 C97.683747,10.8183366 97.7717003,11.1003451 97.7717003,11.2867159 C97.7717003,11.3774491 98.040289,11.5638199 98.040289,11.5638199 C98.2232887,11.5638199 98.4025054,11.3774491 98.5840865,11.3774491 C98.4923502,11.9390138 98.671567,12.2200414 99.2120544,12.4991072 L99.1212639,13.4049676 C98.040289,13.4049676 97.3210577,13.8493149 96.5138731,14.2240184 C96.2405557,14.0376475 96.0632305,13.7585817 95.8835409,13.4809873 C94.8011474,13.8493149 92.9862824,15.3437147 92.9862824,15.3437147 L92.9862824,14.6914168 C93.7811725,13.9449526 94.8011474,13.5697587 95.6106964,13.1440484 L95.6106964,12.4991072 C95.2527358,12.312246 94.8928837,12.4991072 94.5349231,12.4991072 C93.7811725,12.5932736 92.9862824,12.9591489 92.4481593,13.4049676 C92.4481593,13.1440484 92.3583145,12.7796444 92.3583145,12.7796444 C93.3503903,12.2200414 94.5349231,11.752643 95.7014869,11.9390138 L95.7014869,11.5638199 C95.6106964,11.3774491 95.6106964,11.1003451 95.4343169,11.1003451 C94.8928837,10.5387803 94.3523963,9.69962111 94.3523963,9.14001815 L94.7146127,8.96198496 C94.5349231,8.43328033 94.3523963,7.04138445 94.7146127,6.57398601 C94.1916214,6.29492021 93.6979478,5.82752177 93.5305528,5.45625145 C93.3503903,4.98885301 93.1688092,4.7097872 93.0761272,4.18794886 C93.3503903,3.62785546 93.5305528,3.44148462 93.7811725,2.88874796 C93.9457303,2.88874796 94.1916214,2.79703389 94.2701174,2.60968215 C94.7146127,2.51551584 94.9832014,2.05155054 95.5213245,2.33257815 C95.8835409,2.33257815 96.2405557,2.51551584 96.5138731,2.60968215 C96.5138731,2.79703389 96.5138731,2.88874796 96.6911984,3.07560924 C97.2312129,3.07560924 97.2312129,3.62785546 97.505476,4.09525389 C97.7717003,4.18794886 98.040289,4.18794886 98.2232887,4.18794886 C98.7614118,4.36009666 99.2120544,4.36009666 99.3922169,4.61365909 C100.110975,4.18794886 100.829734,4.09525389 101.640228,4.18794886 C101.728182,3.90692126 101.911181,3.53368914 102.004336,3.07560924 C102.090871,3.34682785 102.090871,3.07560924 102.271033,3.07560924 C102.601095,2.79703389 103.01249,2.33257815 103.635729,2.51551584 C103.995108,2.79703389 104.623549,2.60968215 104.982928,3.07560924 C105.253881,3.44148462 105.433571,4.00059713 105.703578,4.44003994 C105.433571,4.98885301 105.703578,5.73531725 105.164509,6.01438306 L104.623549,6.57398601 C104.444332,6.57398601 104.444332,6.76231865 104.174798,6.76231865 C104.444332,7.41461657 104.267007,8.33862356 103.995108,8.96198496 C104.174798,8.88449393 104.444332,8.88449393 104.444332,8.61916071 C104.536068,8.71185568 104.444332,8.88449393 104.444332,8.96198496 L104.444332,9.23271312 C104.444332,9.69962111 104.174798,10.1670195 103.813527,10.5387803 C103.635729,11.1003451 103.185086,11.8468093 102.601095,11.9390138 L102.601095,12.1248942 C103.903372,12.1248942 104.982928,12.4991072 106.244065,13.1440484 L106.244065,13.7585817 L106.244065,13.7585817 Z M113.152658,22.7215476 C113.152658,22.8995808 112.881705,23.0864421 112.79186,23.0864421 C112.79186,23.0864421 112.340272,22.6293431 112.256101,22.2021615 C112.166729,21.827458 112.521853,21.1736888 112.521853,21.1736888 C112.611697,21.1736888 112.703434,21.3620214 112.79186,21.3620214 C112.881705,21.4542259 112.79186,21.7372153 112.881705,22.0143193 C113.152658,22.2021615 113.33282,22.5366481 113.152658,22.7215476 L113.152658,22.7215476 Z M120.378544,29.1503605 C120.378544,29.1856729 120.209731,29.350464 120.209731,29.350464 C119.795499,29.1503605 119.539678,29.0576656 118.999663,29.0576656 C118.999663,28.6863952 118.731547,28.217035 118.551385,28.217035 C118.01137,28.217035 118.098851,28.5922289 117.651518,28.5922289 L118.459648,27.7515984 C118.551385,27.5647371 118.551385,27.5647371 118.731547,27.5647371 C118.999663,27.7515984 119.089035,27.8477265 119.358569,27.8477265 C119.358569,28.0360591 119.358569,28.1267923 119.272035,28.4038963 C119.539678,28.5922289 119.710383,28.3116918 119.878723,28.5922289 C120.12887,28.6863952 120.378544,28.7790902 120.378544,29.1503605 L120.378544,29.1503605 Z M111.979474,20.7077617 C111.979474,20.9907511 111.808296,21.0814842 111.638536,21.268836 C111.638536,21.268836 111.309421,20.8014375 111.309421,20.6155572 C111.309421,20.2388919 111.309421,20.0574255 111.392645,19.7759075 C111.638536,20.0574255 111.979474,20.4301672 111.979474,20.7077617 L111.979474,20.7077617 Z M115.492406,23.4591837 C115.492406,24.021239 115.402088,24.6750082 115.402088,25.329268 C115.132553,25.329268 115.132553,25.1409353 115.132553,24.7652509 C115.0446,24.2061384 114.861128,23.7416827 114.680019,23.1801179 C114.501748,22.4522908 114.052997,21.827458 113.695982,20.9907511 C113.604246,20.6155572 113.152658,20.4301672 112.79186,20.1471778 C113.240611,20.1471778 113.695982,20.1471778 114.052997,20.5223717 C114.052997,20.7077617 114.142842,20.8014375 114.414741,21.0814842 C115.0446,21.0814842 114.861128,21.9226053 115.402088,22.2958374 C115.132553,22.5366481 115.0446,22.7215476 114.861128,22.8995808 C115.132553,23.0864421 115.402088,23.1801179 115.492406,23.4591837 L115.492406,23.4591837 Z M110.889514,18.1888127 C110.619507,18.4737639 109.901694,18.560083 109.360734,18.0941559 L110.077128,17.7699688 C110.348554,18.0019514 110.709825,18.0941559 110.889514,18.1888127 L110.889514,18.1888127 Z M108.909146,16.0896885 C108.817882,16.4658634 108.458503,16.0896885 108.372914,16.0896885 L107.560528,16.0896885 C107.470683,15.9038081 107.378947,15.8116036 107.378947,15.6227805 C107.740218,15.530576 108.008806,15.3437147 108.280232,15.530576 C108.458503,15.8116036 108.638666,16.0896885 108.909146,16.0896885 L108.909146,16.0896885 Z M116.751179,23.3669792 C116.751179,23.7416827 116.571016,24.021239 116.662752,24.3944711 C116.481171,23.8324159 116.120373,23.2742843 115.938792,22.7215476 C115.938792,22.6293431 115.848948,22.6293431 116.032893,22.5366481 C116.120373,22.5366481 116.481171,22.5366481 116.481171,22.6293431 C116.571016,22.8068858 116.751179,23.0864421 116.751179,23.3669792 L116.751179,23.3669792 Z M121.264225,27.1939572 C121.264225,27.5647371 121.175799,27.6613556 121.084535,28.1267923 C120.464606,28.0360591 120.464606,27.2841999 120.378544,27.1939572 C119.959111,26.6338638 119.358569,27.1012622 118.911237,27.1012622 C118.731547,26.5411688 118.999663,26.5411688 118.999663,26.1664654 C119.272035,26.1664654 119.539678,25.9776423 119.795499,26.1664654 C120.209731,25.9776423 120.464606,26.4470025 120.902481,26.4470025 C120.992799,26.6338638 121.175799,27.1012622 121.264225,27.1939572 L121.264225,27.1939572 Z M123.068687,29.8178624 C122.88285,30.1042849 122.88285,30.1042849 122.794424,30.3598092 C122.794424,29.9105574 122.252045,29.6329629 121.893138,28.8747279 L122.252045,28.217035 C122.524889,28.4038963 122.88285,28.6863952 122.88285,29.1503605 C122.88285,29.1503605 122.794424,29.350464 122.88285,29.5427202 C122.88285,29.6329629 123.068687,29.6329629 123.068687,29.8178624 L123.068687,29.8178624 Z M108.280232,14.0376475 C107.740218,14.0376475 107.470683,13.7585817 107.200676,13.2396861 C107.200676,12.9591489 107.11225,12.5932736 107.200676,12.1248942 C107.378947,12.4991072 107.378947,12.686459 107.560528,12.8718489 C107.918489,12.686459 107.918489,13.1440484 108.008806,13.2396861 C108.101488,13.4809873 108.280232,13.7585817 108.280232,14.0376475 L108.280232,14.0376475 Z M115.938792,20.8956039 C115.132553,20.4301672 114.680019,19.5929698 113.960788,18.744492 C114.680019,18.744492 114.861128,19.4978226 115.402088,19.5929698 C115.580359,19.7759075 115.763359,19.8690929 115.938792,20.1471778 L115.938792,20.8956039 L115.938792,20.8956039 Z M121.537542,26.1664654 C120.902481,26.1664654 121.264225,24.8599077 119.959111,24.8599077 C119.710383,24.8599077 119.539678,25.329268 119.180298,25.4195107 C119.180298,25.329268 119.272035,24.7652509 119.272035,24.7652509 C119.272035,24.5788801 119.358569,24.2061384 119.710383,24.021239 C120.378544,24.021239 120.209731,24.2998143 120.723265,24.4847138 C120.992799,24.5788801 121.175799,24.7652509 121.537542,24.7652509 L121.537542,26.1664654 L121.537542,26.1664654 Z M123.695236,27.3798376 C123.695236,27.939931 123.695236,28.1267923 123.423337,28.5922289 L122.88285,27.7515984 C123.068687,27.4744944 123.068687,27.1012622 123.332547,26.6338638 C123.423337,26.6338638 123.695236,27.2841999 123.695236,27.3798376 L123.695236,27.3798376 Z M106.426119,9.60545479 C106.426119,9.69962111 106.244065,10.5387803 106.244065,10.5387803 L105.52578,10.7266225 L105.973585,8.71185568 C106.157058,9.04536139 106.426119,9.41761261 106.426119,9.60545479 L106.426119,9.60545479 Z M121.984875,24.1114817 C121.714867,24.021239 121.084535,23.9265822 121.084535,23.6475164 C121.084535,23.2742843 120.902481,23.1801179 120.464606,23.1801179 C120.12887,23.1801179 119.878723,23.2742843 119.358569,23.4591837 C119.358569,23.4591837 119.089035,23.0864421 118.999663,22.7215476 C119.180298,22.6293431 119.878723,22.4522908 120.209731,22.4522908 C120.812637,22.4522908 121.444387,22.4522908 121.444387,22.7215476 C121.444387,23.0864421 121.984875,23.1801179 121.984875,24.1114817 L121.984875,24.1114817 Z M122.794424,22.1075047 C122.164564,22.1075047 121.537542,21.9226053 121.444387,21.643049 C121.264225,21.4542259 121.444387,21.0814842 120.992799,21.0814842 C120.812637,21.0814842 120.544994,21.3620214 120.544994,21.3620214 C120.378544,21.4542259 119.878723,21.0814842 119.878723,21.3620214 C119.878723,21.827458 119.539678,22.0143193 119.089035,22.0143193 C118.911237,22.0143193 118.731547,22.0143193 118.551385,21.9226053 L118.551385,20.9907511 C119.710383,20.9907511 119.628104,20.6155572 120.12887,20.6155572 C120.464606,20.6155572 120.723265,20.8014375 120.992799,20.8014375 C121.444387,20.8014375 121.175799,20.6155572 121.625968,20.6155572 C122.076611,20.6155572 122.252045,20.9907511 122.524889,21.0814842 C122.524889,21.3620214 122.794424,21.7372153 122.794424,22.1075047 L122.794424,22.1075047 Z M122.524889,20.0574255 C121.803294,19.5929698 120.723265,19.3065473 120.12887,19.3065473 C119.795499,19.3065473 118.731547,19.7759075 118.372168,20.1471778 L118.188695,19.3065473 C118.731547,19.2123809 118.731547,18.744492 119.089035,18.744492 C119.358569,18.744492 119.710383,18.6517971 119.959111,18.6517971 C120.209731,18.6517971 120.378544,18.4737639 120.464606,18.4737639 C120.902481,18.4737639 120.723265,18.9362578 120.992799,18.9362578 C121.264225,18.9362578 121.444387,18.744492 121.625968,18.744492 C122.076611,18.744492 122.435045,19.4978226 122.524889,20.0574255 L122.524889,20.0574255 Z M120.464606,18.0019514 C119.959111,18.0019514 119.878723,17.9269126 119.539678,17.9269126 C119.089035,17.9269126 118.551385,18.0941559 118.279486,18.560083 C118.098851,18.1888127 118.188695,18.0019514 118.279486,17.7699688 C118.551385,17.4928647 118.999663,17.1161995 119.358569,17.1161995 C119.959111,17.1161995 120.464606,17.5835979 120.464606,18.0019514 L120.464606,18.0019514 Z M120.544994,16.6502724 C119.959111,16.4658634 119.628104,16.1853262 119.089035,16.1853262 C118.911237,16.1853262 118.098851,16.4658634 118.01137,16.6502724 C117.741836,16.2770403 118.188695,15.530576 118.551385,15.3437147 C118.911237,15.156363 119.089035,15.2500389 119.272035,15.3437147 C119.272035,15.9038081 119.878723,15.6227805 120.209731,15.8116036 C120.378544,16.0896885 120.464606,16.2770403 120.544994,16.6502724 L120.544994,16.6502724 Z M122.702687,6.01438306 L121.714867,6.01438306 C121.537542,5.73531725 121.264225,6.01438306 121.084535,6.01438306 C120.902481,6.01438306 120.812637,6.01438306 120.464606,5.73531725 C120.992799,5.73531725 121.264225,5.45625145 121.714867,5.26742836 C122.076611,5.54845597 122.435045,5.64262228 122.702687,6.01438306 L122.702687,6.01438306 Z M125.405597,7.98108582 C125.225435,7.59755426 124.862746,7.41461657 124.593211,7.41461657 C124.326041,7.04138445 123.965243,6.57398601 123.603027,6.57398601 C123.874926,6.57398601 124.234778,6.29492021 124.681637,6.29492021 C124.862746,6.76231865 125.225435,7.04138445 125.313388,7.41461657 L125.405597,7.98108582 L125.405597,7.98108582 Z M101.911181,31.3868106 C101.817554,31.3868106 102.004336,31.5756337 101.104943,30.6462317 C100.920524,30.6462317 100.652408,31.2009302 100.652408,31.3868106 C100.652408,32.1357271 100.829734,33.1612571 101.104943,33.90625 L101.817554,33.90625 C101.817554,33.0685621 101.911181,32.1357271 101.911181,31.3868106 L101.911181,31.3868106 Z M103.813527,31.4814673 C103.813527,31.1097066 103.54683,31.0160307 103.185086,31.0160307 C103.01249,31.0160307 102.601095,31.294606 102.601095,31.4814673 C102.601095,31.8546995 102.436064,33.90625 102.436064,33.90625 L103.01249,33.90625 C103.274458,33.0685621 103.813527,31.9488658 103.813527,31.4814673 L103.813527,31.4814673 Z M115.580359,30.3598092 L114.680019,30.4539755 C115.0446,30.6462317 115.0446,31.1097066 115.0446,31.2009302 C115.0446,31.4814673 114.861128,31.7600427 114.680019,31.9488658 C114.501748,31.7600427 114.501748,31.4814673 114.322059,31.2009302 C114.142842,31.2009302 114.052997,31.6683286 114.052997,31.8546995 C114.052997,32.6933682 114.414741,33.3471375 114.680019,33.90625 L115.492406,33.90625 C115.402088,33.1612571 115.219088,32.5089592 115.219088,31.6683286 C115.219088,31.2009302 115.492406,30.6462317 115.580359,30.3598092 L115.580359,30.3598092 Z M134.920635,21.9226053 C134.920635,17.8626637 133.303901,13.7585817 130.418937,10.8183366 C129.170095,9.51128848 127.800198,8.88449393 126.717332,7.59755426 C126.179208,7.04138445 125.765449,6.48178149 125.405597,5.73531725 C124.953063,5.26742836 124.681637,4.98885301 124.143041,4.7097872 C124.234778,4.98885301 124.326041,5.26742836 124.417305,5.54845597 L124.326041,5.54845597 C123.874926,5.54845597 123.423337,5.26742836 123.068687,4.98885301 L123.423337,4.61365909 C123.332547,4.44003994 123.068687,4.44003994 122.88285,4.44003994 C121.444387,4.18794886 120.12887,4.98885301 118.731547,5.26742836 L118.731547,5.45625145 C119.628104,5.73531725 119.795499,6.85599451 120.292955,7.41461657 L120.812637,7.41461657 C120.992799,7.41461657 121.264225,7.59755426 121.444387,7.59755426 C121.444387,7.41461657 121.264225,7.04138445 121.264225,7.04138445 C121.444387,6.85599451 121.625968,6.85599451 121.803294,7.04138445 C122.252045,7.32241205 122.88285,6.85599451 123.332547,7.59755426 C122.794424,7.59755426 122.252045,7.59755426 121.803294,7.88593861 C121.803294,7.98108582 122.076611,8.14685778 121.984875,8.33862356 C121.537542,8.14685778 120.992799,8.33862356 120.812637,7.98108582 L120.723265,8.05072966 C121.264225,8.71185568 122.076611,9.23271312 122.88285,9.51128848 C124.053197,9.69962111 125.044327,9.14001815 126.179208,9.41761261 C130.239721,11.4750485 133.12232,16.2770403 133.12232,21.0814842 C133.12232,27.939931 129.342218,30.6462317 126.989703,30.6462317 C126.539061,30.6462317 125.851511,30.3598092 125.585287,30.1042849 C125.851511,29.1503605 126.015123,28.0360591 126.015123,26.3528362 C126.015123,22.3885323 124.505258,18.0941559 122.435045,15.9038081 C121.444387,14.8763163 120.378544,14.0376475 119.272035,14.0376475 C118.731547,14.0376475 118.188695,14.0376475 117.831681,14.5035746 C117.381984,14.8763163 117.109139,15.6227805 117.200875,16.0896885 C116.481171,16.6502724 115.314135,16.9283573 114.414741,16.9283573 C113.422665,16.9283573 112.166729,16.5561061 111.057855,15.6227805 L111.057855,14.2240184 C110.797778,14.130833 109.901694,13.5697587 110.348554,13.1440484 C110.619507,13.2396861 110.797778,13.4049676 110.889514,13.4809873 C110.797778,12.8718489 110.797778,12.1248942 110.348554,11.5638199 C110.166973,11.5638199 109.901694,11.5638199 109.631214,11.3774491 C109.360734,11.1003451 109.085525,10.7266225 109.085525,10.2592241 C109.360734,10.7266225 109.807121,10.5387803 110.077128,10.8183366 C109.631214,9.69962111 109.807121,9.23271312 108.998991,7.59755426 C108.817882,6.76231865 108.008806,6.29492021 107.470683,5.73531725 C107.200676,5.54845597 107.11225,5.26742836 106.782188,5.26742836 C106.426119,5.17620474 106.426119,4.7097872 106.426119,4.44003994 C106.515491,4.44003994 106.782188,4.61365909 106.959514,4.7097872 C106.426119,3.44148462 106.064376,2.05155054 104.897812,1.3031245 L104.623549,1.48802399 L103.185086,1.48802399 C103.362884,1.3031245 103.723209,1.20993908 103.995108,1.0240587 C103.723209,0.743031096 103.54683,0.648864779 103.01249,0.648864779 C102.765653,0.743031096 102.436064,1.0240587 102.090871,1.0240587 L102.004336,1.0240587 C102.004336,0.743031096 101.911181,0.369798974 102.436064,0.183918588 C101.911181,0.0887713718 101.460539,0.0887713718 100.829734,0.183918588 C100.739889,0.648864779 100.472246,0.929892381 100.472246,1.3031245 C100.204603,1.48802399 100.110975,1.76905159 99.8400223,2.05155054 C99.8400223,1.48802399 100.110975,0.929892381 100.204603,0.369798974 C99.8400223,0.462493943 99.3922169,0.743031096 99.2120544,0.743031096 C98.4923502,0.369798974 97.5915379,0 97.2312129,0 C97.7717003,0.369798974 97.505476,1.0240587 97.5915379,1.48802399 L97.2312129,1.3031245 C97.1446782,0.929892381 96.6911984,0.648864779 96.6056094,0.183918588 C96.0632305,0.183918588 95.7014869,0.369798974 95.2527358,0.648864779 L95.2527358,0.743031096 C95.5213245,0.743031096 95.8835409,1.0240587 96.0632305,1.3031245 C95.4343169,1.3031245 94.9832014,1.0240587 94.3523963,1.0240587 C94.3523963,1.0240587 94.3523963,0.929892381 94.2701174,0.929892381 C94.0270635,1.0240587 93.7811725,1.3031245 93.6175604,1.48802399 C92.9862824,2.05155054 92.5380041,2.51551584 92.2684697,3.34682785 C92.4481593,3.34682785 92.7181666,3.34682785 92.8099029,3.44148462 C92.4481593,3.53368914 92.2684697,4.00059713 91.9086176,4.09525389 L91.9086176,5.45625145 C91.6386104,5.73531725 91.279704,6.01438306 91.0995415,6.57398601 C90.6498447,8.05072966 90.5576355,9.69962111 90.5576355,11.5638199 C90.4696822,11.9390138 90.2914112,12.0321993 90.1098301,12.1248942 L90.1098301,13.5697587 C90.1098301,13.5697587 90.6498447,13.0489012 90.9193791,12.8718489 L90.9193791,14.0376475 C90.5576355,14.0376475 90.2914112,14.5035746 90.2914112,14.7841118 C90.2914112,15.156363 90.381256,15.530576 90.381256,15.9038081 C90.381256,16.0896885 90.381256,16.0896885 90.4696822,16.2770403 C90.4696822,16.0896885 90.6498447,15.9038081 90.9193791,15.8116036 C90.9193791,15.8116036 91.0995415,15.6227805 91.4584479,15.6227805 C91.1912778,15.9038081 91.0995415,16.2770403 90.9193791,16.6502724 L90.6498447,16.9283573 C90.6498447,16.9283573 90.5576355,17.1161995 90.5576355,17.2103658 C90.9193791,19.1216478 91.4584479,20.8014375 92.1800435,22.6293431 C91.4584479,23.8324159 90.6498447,26.1664654 90.1098301,28.4038963 C89.6601332,27.939931 89.0293281,27.8477265 88.4883678,27.8477265 C87.9838183,27.939931 87.4475867,28.1267923 87.0834788,28.6863952 C86.5434643,28.4038963 85.8280159,28.4980626 85.4804584,28.8747279 C84.7347465,29.5427202 84.7347465,29.9105574 84.7347465,30.4539755 C84.5526926,30.6462317 84.1904762,31.1097066 84.1904762,31.7600427 C84.1904762,32.6011637 84.280321,33.1612571 84.7347465,33.90625 L98.2232887,33.90625 C98.1315524,33.6286555 97.9518628,33.2568948 97.7717003,33.0685621 C97.505476,32.5089592 97.683747,31.7600427 97.683747,31.2009302 C97.9518628,30.6462317 98.2232887,30.1042849 98.5840865,29.6329629 C98.671567,29.350464 98.5840865,29.350464 98.671567,29.2597308 L99.3023721,29.1503605 C99.6598598,29.1503605 99.9303399,28.8747279 100.380983,28.8747279 C100.652408,29.2597308 100.652408,28.5922289 101.104943,28.4038963 C102.090871,28.217035 103.01249,28.4038963 103.54683,29.1503605 C103.54683,29.2597308 103.635729,29.2597308 103.635729,29.350464 L103.185086,29.350464 C102.681482,29.1503605 102.090871,28.8747279 101.460539,29.1503605 C101.460539,29.350464 101.373531,29.350464 101.373531,29.6329629 L101.373531,30.1042849 C101.728182,30.1042849 102.004336,30.4539755 102.353312,30.6462317 C102.51787,30.3598092 103.01249,30.1042849 103.362884,30.1042849 C103.813527,30.1042849 104.444332,30.3598092 104.444332,31.1097066 L104.444332,32.1357271 C104.805603,32.5089592 105.253881,32.6011637 105.703578,32.7860632 C105.52578,33.1612571 105.253881,33.1612571 104.982928,33.1612571 L104.267007,33.1612571 C104.174798,33.0685621 103.995108,33.0685621 103.995108,32.7860632 C103.723209,33.1612571 103.54683,33.5359606 103.362884,33.90625 L113.77968,33.90625 C113.604246,33.5359606 113.422665,33.2568948 113.33282,33.0685621 C113.152658,32.5089592 113.152658,31.7600427 113.152658,31.2009302 L114.142842,29.8178624 C114.680019,29.8178624 115.132553,29.6329629 116.120373,29.5427202 C116.303373,29.2597308 116.120373,29.1503605 116.931341,29.1503605 C117.559782,29.1503605 118.01137,29.2597308 118.188695,29.350464 C118.279486,29.5427202 118.279486,29.5427202 118.188695,29.7256579 C118.01137,29.9105574 117.651518,29.5427202 117.381984,29.6329629 C117.200875,29.8178624 117.473247,29.9105574 117.473247,30.1042849 C117.651518,30.2656429 116.662752,29.9105574 116.662752,29.9105574 C116.662752,29.9105574 116.481171,30.4539755 116.392745,30.6462317 C116.392745,30.6462317 116.751179,31.0160307 116.931341,31.2009302 C117.109139,31.4814673 116.662752,31.7600427 116.662752,32.0410703 C116.481171,31.9488658 116.120373,31.6683286 116.120373,31.7600427 C115.938792,32.5089592 116.120373,33.1612571 116.032893,33.90625 L117.019294,33.90625 L117.109139,32.3220979 C117.200875,31.3868106 118.279486,29.7256579 118.911237,29.7256579 C119.272035,29.7256579 119.539678,29.9105574 119.795499,30.1042849 C119.959111,30.4539755 120.378544,30.6462317 120.378544,30.8252458 C120.378544,31.0160307 120.12887,31.1097066 119.710383,31.1097066 C119.539678,31.1097066 119.539678,30.8252458 119.272035,30.6462317 L118.731547,31.2009302 C118.731547,31.2009302 119.358569,31.7600427 119.358569,32.1357271 C119.358569,32.6011637 119.272035,32.7860632 118.999663,33.0685621 L118.459648,31.9488658 C118.188695,31.9488658 117.741836,32.5089592 117.741836,32.7860632 C117.741836,33.1612571 117.559782,33.3471375 117.559782,33.90625 L123.068687,33.90625 C123.695236,33.90625 124.234778,33.7223314 124.862746,33.3471375 L125.937573,33.3471375 C128.157686,33.3471375 129.880341,32.6933682 131.502749,31.0160307 C133.662335,28.8747279 134.920635,25.329268 134.920635,21.9226053 L134.920635,21.9226053 Z M100.380983,33.90625 C99.9303399,33.0685621 99.8400223,31.7600427 99.8400223,31.4814673 C99.8400223,31.0160307 99.8400223,30.3598092 100.110975,29.9105574 L99.1212639,30.1042849 C98.8512566,30.4539755 98.7614118,30.6462317 98.7614118,30.8252458 L99.2120544,30.6462317 C99.3023721,30.6462317 99.3922169,30.8252458 99.4806431,31.0160307 C99.3922169,31.4814673 98.8512566,31.4814673 98.671567,31.6683286 C98.4025054,32.6011637 99.2120544,33.1612571 99.3023721,33.90625 L100.380983,33.90625 L100.380983,33.90625 Z" id="Fill-3" fill="#FF6600"></path>
                        </g>
                    </g>
                </g>
            </g>
        </g>
    </g>
</svg>